<?xml version="1.0" encoding="utf-8"?>
<!-- Generator: Adobe Illustrator 24.1.2, SVG Export Plug-In . SVG Version: 6.00 Build 0)  -->
<svg version="1.1" id="Capa_1" xmlns="http://www.w3.org/2000/svg" xmlns:xlink="http://www.w3.org/1999/xlink" x="0px" y="0px"
	 viewBox="0 0 6 12" style="enable-background:new 0 0 6 12;" xml:space="preserve">
<style type="text/css">
	.st0{fill:#5F6C84;}
</style>
<path class="st0" d="M4.2,6L0.1,1.3C-0.1,0.9,0,0.5,0.3,0.2C0.5,0,0.8-0.1,1.1,0.1c1.6,1.8,3.1,3.5,4.7,5.3C5.8,5.5,6,5.7,6,6
	c0,0.3-0.1,0.5-0.2,0.5c-1.5,1.8-3.1,3.5-4.6,5.3c-0.3,0.3-0.8,0.2-1-0.2c-0.2-0.4-0.1-0.9,0.2-1.2C1.6,9,2.9,7.5,4.2,6z"/>
</svg>
