<?xml version="1.0" encoding="utf-8"?>
<!-- Generator: Adobe Illustrator 24.1.2, SVG Export Plug-In . SVG Version: 6.00 Build 0)  -->
<svg version="1.1" id="Capa_1" xmlns="http://www.w3.org/2000/svg" xmlns:xlink="http://www.w3.org/1999/xlink" x="0px" y="0px"
	 viewBox="0 0 12 6" style="enable-background:new 0 0 12 6;" xml:space="preserve">
<style type="text/css">
	.st0{fill:#5F6C84;}
</style>
<path class="st0" d="M6,4.2l4.7-4.1c0.4-0.2,0.8-0.1,1.1,0.2c0.2,0.2,0.3,0.6,0.1,0.9c-1.8,1.6-3.5,3.1-5.3,4.7C6.5,5.8,6.3,6,6,6
	C5.7,6,5.5,5.9,5.5,5.8C3.7,4.3,1.9,2.7,0.2,1.2c-0.3-0.3-0.2-0.8,0.2-1C0.7-0.1,1.2,0,1.5,0.3C3,1.6,4.5,2.9,6,4.2z"/>
</svg>
