<?xml version="1.0" encoding="utf-8"?>
<!-- Generator: Adobe Illustrator 24.1.2, SVG Export Plug-In . SVG Version: 6.00 Build 0)  -->
<svg version="1.1" id="Capa_1" xmlns="http://www.w3.org/2000/svg" xmlns:xlink="http://www.w3.org/1999/xlink" x="0px" y="0px"
	 viewBox="0 0 1440 916" style="enable-background:new 0 0 1440 916;" xml:space="preserve">
<style type="text/css">
	.st0{fill:#EBEBFF;}
	.st1{fill:#6070FF;}
	.st2{fill:#CBCDFF;}
	.st3{fill:#FFFFFF;stroke:#EBEBFF;}
	.st4{fill:#FFFFFF;stroke:#EBEBFF;stroke-width:1.9678;}
</style>
<polygon class="st0" points="32.5,215.6 111.2,136.2 125.9,149.8 47.2,229.2 "/>
<polygon class="st0" points="730.7,732.4 877.5,793.6 867.8,820.4 721.1,759.2 "/>
<path class="st1" d="M85,188.7c-4.1,9.6-4.2,20.3-0.3,30c3.9,9.6,11.4,17.3,21,21.4c9.6,4.1,20.3,4.2,30,0.3
	c9.6-3.9,17.3-11.4,21.4-21L85,188.7z"/>
<path class="st1" d="M257.9,749.1c-0.5,4.7,0.8,9.4,3.8,13.1c3,3.7,7.3,6.1,12,6.6s9.4-0.8,13.1-3.8c3.7-3,6.1-7.3,6.6-12
	L257.9,749.1z"/>
<path class="st1" d="M1418.2,243.8c-9.2-16.1-22.2-29.9-37.8-40.1c-15.6-10.3-33.5-16.8-52.2-19c-18.7-2.2-37.6-0.1-55.3,6.3
	c-17.7,6.3-33.6,16.7-46.4,30.2c-12.9,13.5-22.3,29.8-27.6,47.5c-5.3,17.8-6.2,36.5-2.8,54.7c3.5,18.2,11.2,35.3,22.6,50
	c11.4,14.7,26.2,26.5,43.2,34.5l22.3-45.7c-9.7-4.6-18.1-11.3-24.6-19.7c-6.5-8.4-10.9-18.1-12.9-28.5s-1.4-21,1.6-31.1
	c3-10.1,8.4-19.4,15.7-27.1c7.3-7.7,16.4-13.6,26.4-17.2c10.1-3.6,20.8-4.8,31.5-3.6c10.6,1.3,20.8,5,29.7,10.8
	c8.9,5.9,16.3,13.7,21.5,22.9L1418.2,243.8z"/>
<rect x="1139.8" y="164.4" transform="matrix(0.866 -0.5 0.5 0.866 72.427 646.0321)" class="st0" width="203.8" height="47"/>
<polygon class="st1" points="694.2,255.2 746.8,245.2 745.1,235.3 692.5,245.2 "/>
<ellipse transform="matrix(0.7068 -0.7074 0.7074 0.7068 25.2427 586.5266)" class="st2" cx="720.2" cy="262.8" rx="11" ry="12"/>
<ellipse transform="matrix(0.3601 -0.9329 0.9329 0.3601 -159.3374 1291.8575)" class="st1" cx="862.1" cy="762.1" rx="20.8" ry="23.8"/>
<path class="st0" d="M282.5,804.8c2.3-2.8,4-6,4.8-9.6c0.8-3.5,0.8-7.2-0.1-10.7c-0.9-3.5-2.5-6.8-4.9-9.5c-2.3-2.7-5.3-4.9-8.6-6.3
	c-3.3-1.4-7-2-10.6-1.7c-3.6,0.3-7.1,1.4-10.2,3.3c-3.1,1.9-5.7,4.4-7.6,7.5c-1.9,3.1-3.1,6.5-3.4,10.1l9.9,0.9c0.2-2,0.8-4,1.9-5.8
	c1.1-1.7,2.6-3.2,4.3-4.3c1.8-1.1,3.7-1.7,5.8-1.9c2.1-0.2,4.1,0.2,6,1c1.9,0.8,3.6,2,4.9,3.6s2.3,3.4,2.8,5.4c0.5,2,0.5,4.1,0,6.1
	c-0.5,2-1.4,3.9-2.7,5.4L282.5,804.8z"/>
<circle class="st3" cx="986.8" cy="164.8" r="19"/>
<circle class="st4" cx="1212.2" cy="661" r="37.4"/>
</svg>
