<?xml version="1.0" encoding="utf-8"?>
<!-- Generator: Adobe Illustrator 24.1.2, SVG Export Plug-In . SVG Version: 6.00 Build 0)  -->
<svg version="1.1" id="Layer_1" xmlns="http://www.w3.org/2000/svg" xmlns:xlink="http://www.w3.org/1999/xlink" x="0px" y="0px"
	 viewBox="0 0 746 494" style="enable-background:new 0 0 746 494;" xml:space="preserve">
<style type="text/css">
	.st0{fill:#FEFEFE;}
	.st1{fill:#6170FE;}
</style>
<g>
	<g>
		<path class="st0" d="M0,0h41.5C31.4,1.9,21.4,6.5,14.8,14.7C8.8,22,4.8,31.4,5.3,41C4.8,51.8,9.7,62.2,17,69.9
			c7.6,7.5,18.2,12.1,28.9,12c218,0,436,0,654.1,0c13.8,0.1,27.2-7.7,34.3-19.5c3.6-6.2,6.1-13.2,6.2-20.4
			c0.3-11.9-5-23.7-13.9-31.5c-6.3-5.9-14.8-9-23.2-10.4H746v494H0V0z M38.1,205.2C21.7,208.4,8.2,222.4,5.6,239
			c-0.4,6.6-0.8,13.5,1.8,19.8c4.4,13.1,16,23.5,29.4,26.5c6.2,1.6,12.7,0.9,19.1,1.1c214.7,0,429.4,0,644.1,0
			c8.1-0.1,16.3-2.7,22.9-7.5c9.3-6.3,15.5-16.8,17.1-27.9c2.6-17.3-7.3-35.5-23.2-42.6c-6.4-3.3-13.7-4.1-20.8-3.9
			c-216.7,0-433.3,0-650,0C43.3,204.6,40.7,204.8,38.1,205.2z M40.2,409.3C21.1,411.8,4.8,429.5,5.3,449c-0.7,12,5,23.9,14,31.6
			c8.2,7.6,19.7,10.6,30.7,10.1c215.3,0,430.6,0,646,0c6.6,0.2,13.4-0.6,19.5-3.3c14.5-6,24.5-20.8,25-36.4
			c0.3-11.2-4.2-22.5-12.3-30.3c-6.9-7-16.5-11.2-26.2-11.8c-216.6,0-433.3,0-649.9,0C48.1,409,44.1,408.8,40.2,409.3z"/>
	</g>
</g>
<g>
	<path class="st1" d="M41.5,0h661.9c8.4,1.5,16.8,4.5,23.2,10.4c8.9,7.9,14.1,19.7,13.9,31.5c-0.1,7.2-2.5,14.3-6.2,20.4
		c-7.1,11.8-20.5,19.5-34.3,19.5c-218,0-436,0-654.1,0C35.2,82,24.6,77.4,17,69.9C9.7,62.2,4.8,51.8,5.3,41
		c-0.5-9.6,3.5-19,9.5-26.3C21.4,6.5,31.4,1.9,41.5,0z"/>
	<path class="st1" d="M38.1,205.2c2.6-0.5,5.2-0.7,7.8-0.7c216.7,0,433.3,0,650,0c7.1-0.2,14.4,0.6,20.8,3.9
		c16,7.1,25.8,25.4,23.2,42.6c-1.7,11.1-7.8,21.6-17.1,27.9c-6.6,4.8-14.8,7.3-22.9,7.5c-214.7,0-429.4,0-644.1,0
		c-6.4-0.2-12.9,0.6-19.1-1.1c-13.5-3.1-25-13.4-29.4-26.5c-2.6-6.3-2.2-13.2-1.8-19.8C8.2,222.4,21.7,208.4,38.1,205.2z"/>
	<path class="st1" d="M40.2,409.3c3.9-0.5,7.9-0.3,11.8-0.3c216.7,0,433.3,0,649.9,0c9.8,0.6,19.3,4.8,26.2,11.8
		c8,7.8,12.6,19.1,12.3,30.3c-0.5,15.6-10.5,30.4-25,36.4c-6.1,2.6-12.9,3.5-19.5,3.3c-215.3,0-430.6,0-646,0
		c-11,0.6-22.5-2.5-30.7-10.1c-9-7.8-14.7-19.7-14-31.6C4.8,429.5,21.1,411.8,40.2,409.3z"/>
</g>
</svg>
