<?xml version="1.0" encoding="utf-8"?>
<!-- Generator: Adobe Illustrator 24.1.2, SVG Export Plug-In . SVG Version: 6.00 Build 0)  -->
<svg version="1.1" id="Capa_1" xmlns="http://www.w3.org/2000/svg" xmlns:xlink="http://www.w3.org/1999/xlink" x="0px" y="0px"
	 viewBox="0 0 20.1 20.1" style="enable-background:new 0 0 20.1 20.1;" xml:space="preserve">
<style type="text/css">
	.st0{fill:#505F79;}
</style>
<path class="st0" d="M13.6,1.9c-3.5,0-6.4,3-6.4,6.8v10.6c0,0.4,0.3,0.7,0.7,0.7h3.6c0.4,0,0.7-0.3,0.7-0.7V8.9
	c0-0.8,0.6-1.5,1.4-1.5s1.4,0.7,1.4,1.5v10.3c0,0.4,0.3,0.7,0.7,0.7h3.6c0.4,0,0.7-0.3,0.7-0.7V8.7C20,4.9,17.1,1.9,13.6,1.9z"/>
<path class="st0" d="M3.3,0C1.9,0,0.8,1.2,0.8,2.6s1.1,2.6,2.5,2.6c1.4,0,2.5-1.2,2.5-2.6S4.7,0,3.3,0z"/>
<path class="st0" d="M5.1,5.7H1.5c-0.4,0-0.7,0.3-0.7,0.7v13.1c0,0.4,0.3,0.7,0.7,0.7h3.6c0.4,0,0.7-0.3,0.7-0.7V6.5
	C5.8,6.1,5.5,5.7,5.1,5.7z"/>
</svg>
